<svg xmlns="http://www.w3.org/2000/svg" version="1.1" xmlns:xlink="http://www.w3.org/1999/xlink" width="1000" height="1000"><style>
    #light-icon {
      display: inline;
    }
    #dark-icon {
      display: none;
    }

    @media (prefers-color-scheme: dark) {
      #light-icon {
        display: none;
      }
      #dark-icon {
        display: inline;
      }
    }
  </style><g id="light-icon"><svg xmlns="http://www.w3.org/2000/svg" version="1.1" xmlns:xlink="http://www.w3.org/1999/xlink" width="1000" height="1000"><g><g transform="matrix(6.7114093959731544,0,0,6.7114093959731544,0,144.29530201342283)"><svg xmlns="http://www.w3.org/2000/svg" width="149" height="106" viewBox="0 0 149 106" fill="none"><path d="M111.057 106L127.308 60.5592L140.079 60.5602L149 0L132.269 45.3894L119.983 45.3897L111.057 106Z" fill="#EAA001"></path><path d="M106.69 64.0934C111.815 64.0934 115.97 59.9156 115.97 54.7621C115.97 49.6085 111.815 45.4308 106.69 45.4308C101.565 45.4308 97.4109 49.6085 97.4109 54.7621C97.4109 59.9156 101.565 64.0934 106.69 64.0934Z" fill="#013372"></path><path d="M35.5061 64.0291C40.631 64.0291 44.7855 59.8514 44.7855 54.6979C44.7855 49.5443 40.631 45.3666 35.5061 45.3666C30.3812 45.3666 26.2267 49.5443 26.2267 54.6979C26.2267 59.8514 30.3812 64.0291 35.5061 64.0291Z" fill="#013372"></path><path d="M24.4801 50.5896C23.771 52.909 23.4476 54.3595 24.0191 57.1754C21.0044 57.5092 18.3755 57.8586 15.4842 58.4097C15.3029 58.4713 15.2142 58.6885 15.2605 58.8431L15.7079 59.9375L15.7215 60.3297C15.6655 60.4196 15.4726 60.5402 15.4024 60.5519H2.71591C2.37523 60.5673 2.0367 60.5222 1.82118 60.4467C-2.93514 58.211 0.632929 55.2718 24.4801 50.5896Z" fill="#013372"></path><path d="M130.52 42.8506L133.74 34.1036L116.102 34.1043L112.298 44.2388C114.75 45.7042 115.327 46.3473 116.945 48.7282C117.235 46.9597 117.331 45.7264 117.721 44.2604L118.193 43.5952L118.834 43.1316L119.941 42.8601L130.52 42.8506Z" fill="#013372"></path><path d="M50.9823 60.5547L96.3712 60.5557C91.7479 51.9904 98.8428 40.5067 109.931 43.3521L111.488 39.2219L111.031 39.1602L88.9329 34.1933C88.5438 34.131 88.1874 34.1071 87.7573 34.1051L72.5873 34.1053C72.3575 34.1319 72.2805 34.26 72.3971 34.4978L73.3391 35.8035L73.6112 35.966L80.6895 36.7244L81.4314 36.9381L83.0988 38.8776C83.1726 39.0847 83.357 39.3288 83.3695 39.466V39.8171C83.3268 39.9643 83.2922 40.058 83.2413 40.1188L83.0654 40.304C82.9481 40.3373 82.854 40.4173 82.7626 40.4905L74.7677 41.2887C74.5773 41.3737 74.4113 41.4724 74.2577 41.5767C74.1454 41.6979 74.0496 41.8329 73.9946 41.9651L72.847 44.4516C72.4169 44.9613 71.741 45.3148 71.2095 45.3057C63.1184 45.1669 55.1149 46.0495 44.8573 47.3872C46.8102 49.7937 47.413 52.6966 47.4063 55.1185L52.4525 54.8415C52.6967 54.8809 52.7712 54.9843 52.8726 55.0993C52.9482 55.4088 52.962 55.5301 52.92 55.8008L50.9823 60.5547Z" fill="#013372"></path></svg></g></g></svg></g><g id="dark-icon"><svg xmlns="http://www.w3.org/2000/svg" version="1.1" xmlns:xlink="http://www.w3.org/1999/xlink" width="1000" height="1000"><g><g transform="matrix(14.285714285714286,0,0,14.285714285714286,0,142.85714285714283)" style="filter: contrast(0.3846153846153846) brightness(4.5)"><svg xmlns="http://www.w3.org/2000/svg" width="70" height="50" viewBox="0 0 70 50" fill="none"><path d="M52.0336 49.6644L59.6477 28.3739L65.6317 28.3744L69.8112 0L61.9724 21.2664L56.216 21.2665L52.0336 49.6644Z" fill="#EAA001"></path><path d="M49.9878 30.0298C52.389 30.0298 54.3355 28.0724 54.3355 25.6578C54.3355 23.2432 52.389 21.2858 49.9878 21.2858C47.5867 21.2858 45.6401 23.2432 45.6401 25.6578C45.6401 28.0724 47.5867 30.0298 49.9878 30.0298Z" fill="#013372"></path><path d="M16.6358 29.9997C19.037 29.9997 20.9835 28.0423 20.9835 25.6277C20.9835 23.2132 19.037 21.2557 16.6358 21.2557C14.2346 21.2557 12.2881 23.2132 12.2881 25.6277C12.2881 28.0423 14.2346 29.9997 16.6358 29.9997Z" fill="#013372"></path><path d="M11.4697 23.7029C11.1375 24.7896 10.9859 25.4692 11.2537 26.7885C9.84125 26.945 8.6095 27.1086 7.25485 27.3668C7.16991 27.3957 7.12835 27.4975 7.15005 27.5699L7.35964 28.0827L7.36603 28.2665C7.33981 28.3085 7.2494 28.365 7.21651 28.3706H1.27249C1.11287 28.3777 0.954259 28.3566 0.853282 28.3212C-1.37521 27.2738 0.296547 25.8966 11.4697 23.7029Z" fill="#013372"></path><path d="M61.153 20.0769L62.6613 15.9786L54.3975 15.9789L52.6152 20.7273C53.764 21.4139 54.0343 21.7152 54.7926 22.8307C54.9282 22.0021 54.9734 21.4243 55.1559 20.7374L55.377 20.4257L55.6773 20.2085L56.1962 20.0813L61.153 20.0769Z" fill="#013372"></path><path d="M23.8869 28.3718L45.153 28.3723C42.9869 24.3592 46.311 18.9787 51.5062 20.3119L52.2356 18.3768L52.0216 18.3478L41.6679 16.0207C41.4856 15.9915 41.3186 15.9803 41.1171 15.9794L34.0095 15.9795C33.9018 15.9919 33.8657 16.0519 33.9204 16.1634L34.3617 16.7751L34.4892 16.8513L37.8056 17.2066L38.1532 17.3067L38.9345 18.2155C38.9691 18.3125 39.0554 18.4269 39.0613 18.4911V18.6556C39.0413 18.7246 39.0251 18.7685 39.0012 18.797L38.9188 18.8837C38.8638 18.8994 38.8197 18.9369 38.7769 18.9711L35.0311 19.3451C34.9418 19.3849 34.8641 19.4312 34.7921 19.48C34.7395 19.5368 34.6946 19.6001 34.6689 19.662L34.1312 20.827C33.9296 21.0658 33.613 21.2315 33.3639 21.2272C29.573 21.1622 25.8231 21.5757 21.0171 22.2025C21.9321 23.33 22.2145 24.6901 22.2114 25.8248L24.5757 25.695C24.6901 25.7135 24.725 25.7619 24.7725 25.8158C24.8079 25.9608 24.8144 26.0177 24.7947 26.1445L23.8869 28.3718Z" fill="#013372"></path></svg></g></g></svg></g></svg>