<?xml version="1.0" standalone="no"?>
<!DOCTYPE svg PUBLIC "-//W3C//DTD SVG 20010904//EN"
 "http://www.w3.org/TR/2001/REC-SVG-20010904/DTD/svg10.dtd">
<svg version="1.0" xmlns="http://www.w3.org/2000/svg"
 width="1254.000000pt" height="1254.000000pt" viewBox="0 0 1254.000000 1254.000000"
 preserveAspectRatio="xMidYMid meet">
<metadata>
Created by potrace 1.14, written by Peter Selinger 2001-2017
</metadata>
<g transform="translate(0.000000,1254.000000) scale(0.100000,-0.100000)"
fill="#000000" stroke="none">
<path d="M3810 10823 c-353 -55 -666 -253 -944 -598 -32 -38 -62 -77 -69 -85
-15 -18 -166 -245 -186 -281 -136 -231 -270 -517 -356 -759 -20 -58 -41 -114
-46 -125 -17 -39 -101 -323 -141 -474 -39 -151 -44 -171 -54 -221 -3 -14 -17
-79 -31 -145 -14 -66 -27 -131 -29 -145 -3 -14 -11 -61 -19 -105 -8 -44 -17
-98 -20 -120 -4 -22 -10 -65 -15 -95 -5 -30 -12 -75 -15 -100 -3 -25 -7 -61
-10 -80 -7 -58 -16 -132 -21 -180 -11 -101 -13 -118 -19 -200 -4 -47 -9 -101
-10 -120 -4 -38 -15 -254 -20 -390 -2 -47 -4 -93 -4 -102 -1 -11 -6 -15 -16
-12 -8 4 -15 1 -15 -6 0 -6 -5 -8 -11 -4 -17 10 -109 12 -109 2 0 -5 -8 -4
-18 1 -13 7 -23 6 -30 -1 -8 -8 -12 -8 -12 -2 0 6 -7 11 -15 11 -8 0 -15 -5
-15 -11 0 -6 -4 -5 -9 2 -4 8 -12 14 -16 14 -4 0 -12 -6 -16 -14 -5 -7 -9 -8
-9 -2 0 14 -30 14 -30 0 0 -6 -4 -5 -9 2 -11 17 -21 17 -32 0 -5 -7 -9 -8 -9
-2 0 14 -30 14 -30 0 0 -6 -4 -5 -9 2 -4 8 -12 14 -16 14 -4 0 -12 -6 -16 -14
-5 -7 -9 -8 -9 -2 0 6 -7 11 -15 11 -8 0 -15 -5 -15 -11 0 -6 -4 -5 -9 2 -11
17 -21 17 -32 0 -6 -9 -9 -9 -9 -1 0 7 -10 10 -23 7 -22 -4 -24 -1 -22 41 1
26 -3 45 -9 45 -6 0 -5 4 3 9 9 6 10 11 2 15 -7 5 -8 13 -2 24 5 9 5 26 0 40
-5 14 -5 21 0 17 6 -3 9 4 8 15 -1 11 -5 20 -10 20 -6 0 -6 5 0 13 5 6 8 18 7
25 -1 6 -2 18 -3 25 -1 9 -20 12 -63 12 -35 0 -71 4 -81 8 -10 4 -17 4 -17 -2
0 -6 -6 -8 -13 -5 -25 9 -98 10 -104 1 -3 -5 -10 -3 -15 4 -6 8 -11 10 -14 4
-2 -6 -45 -10 -102 -9 -53 0 -101 -1 -107 -3 -12 -4 -13 -192 -1 -212 6 -9 5
-12 -1 -8 -7 4 -10 -9 -9 -36 l1 -42 -42 1 c-24 0 -43 -4 -43 -8 0 -5 -5 -6
-11 -2 -17 10 -109 12 -109 2 0 -5 -5 -6 -11 -2 -17 10 -109 12 -109 2 0 -5
-8 -4 -18 1 -13 7 -23 6 -30 -1 -8 -8 -12 -8 -12 -2 0 6 -7 11 -15 11 -8 0
-15 -5 -15 -11 0 -6 -4 -5 -9 2 -11 17 -21 17 -32 0 -5 -7 -9 -8 -9 -2 0 6 -7
11 -15 11 -8 0 -15 -5 -15 -11 0 -6 -4 -5 -9 2 -11 17 -21 17 -32 0 -5 -7 -9
-8 -9 -2 0 6 -7 11 -15 11 -8 0 -15 -5 -15 -11 0 -6 -4 -5 -9 2 -11 17 -21 17
-32 0 -5 -7 -9 -8 -9 -2 0 6 -7 11 -15 11 -8 0 -15 -5 -15 -11 0 -7 -3 -7 -8
-1 -4 6 -13 11 -19 12 -10 2 -13 -36 -13 -165 l0 -167 347 1 c192 1 355 0 364
-2 17 -5 18 -9 20 -79 1 -25 5 -45 8 -45 3 0 6 -41 6 -90 0 -53 4 -90 10 -90
6 0 5 -4 -2 -8 -8 -5 -9 -13 -3 -22 5 -8 5 -21 -1 -32 -5 -10 -6 -18 -2 -18 4
0 8 -54 8 -120 0 -66 3 -120 7 -120 4 0 3 -11 -2 -25 -5 -14 -6 -25 -2 -25 8
0 7 -64 -2 -86 -2 -6 0 -17 4 -25 5 -8 4 -19 -2 -26 -6 -7 -6 -13 -1 -13 5 0
9 -9 9 -20 0 -11 -4 -20 -9 -20 -5 0 -4 -6 2 -14 9 -10 9 -16 1 -21 -7 -4 -8
-11 -2 -18 5 -7 6 -21 1 -32 -11 -29 -11 -37 3 -29 7 4 8 3 4 -5 -4 -7 -10
-85 -12 -174 -7 -281 -11 -354 -18 -366 -4 -6 -2 -11 4 -11 6 0 8 -5 4 -12 -5
-7 -9 -26 -10 -43 -5 -85 -9 -105 -21 -109 -7 -3 -15 -1 -18 5 -4 5 -12 6 -18
2 -20 -13 -41 -12 -49 0 -4 7 -8 8 -8 2 0 -5 -11 -11 -25 -11 -15 -1 -22 2
-18 9 4 6 1 7 -8 1 -19 -12 -33 -12 -41 1 -5 7 -8 6 -8 -1 0 -13 -38 -12 -59
0 -10 6 -12 5 -7 -2 8 -13 -20 -12 -40 1 -6 3 -14 3 -18 -1 -11 -10 -30 -9
-38 3 -5 6 -8 6 -8 0 0 -9 -46 -12 -67 -5 -5 1 -12 1 -18 0 -38 -8 -45 -8 -45
3 0 8 -3 8 -8 2 -8 -12 -22 -13 -39 -2 -6 4 -14 3 -17 -2 -7 -10 -25 -9 -42 2
-6 3 -14 3 -18 -1 -11 -10 -30 -9 -38 3 -5 6 -8 6 -8 -2 0 -7 -10 -10 -25 -7
l-25 4 0 -166 c0 -128 3 -165 13 -161 6 2 20 0 30 -5 11 -5 17 -5 17 1 0 7 9
7 25 1 14 -5 25 -6 25 -2 0 9 134 7 149 -2 6 -4 11 -2 11 4 0 8 6 8 20 0 15
-8 20 -8 20 1 0 8 4 8 15 -1 8 -7 15 -9 15 -4 0 8 109 9 212 1 21 -1 38 0 38
3 0 10 55 5 62 -5 5 -6 8 -6 8 1 0 6 7 11 15 11 13 0 20 -16 16 -39 0 -5 5 -8
11 -8 9 0 8 -4 -2 -10 -13 -9 -13 -11 0 -20 8 -5 10 -10 5 -10 -7 0 -11 -35
-11 -89 1 -58 4 -87 11 -83 6 4 6 1 -1 -9 -12 -16 -12 -29 0 -47 6 -11 11 -11
24 0 9 7 13 8 10 2 -10 -15 177 -21 379 -13 71 3 94 7 99 19 11 25 10 140 0
140 -6 0 -5 5 1 11 8 8 8 20 2 36 -5 13 -5 22 0 19 4 -3 8 8 7 24 -1 17 -5 30
-11 30 -5 0 -4 4 3 9 8 4 13 11 13 15 -3 23 0 30 9 16 5 -8 10 -10 10 -5 0 12
40 13 58 1 7 -4 12 -3 12 3 0 6 6 8 14 5 18 -7 116 -10 116 -4 0 3 33 5 74 5
41 0 72 -3 69 -7 -2 -5 1 -8 6 -8 6 0 11 3 11 8 0 9 124 7 141 -3 8 -5 10 -4
5 3 -9 15 -1 15 26 1 16 -8 19 -8 13 1 -6 9 -2 9 14 1 16 -9 21 -9 21 0 0 8 4
8 15 -1 11 -9 15 -9 15 -1 0 9 3 9 13 0 18 -17 12 -104 -12 -175 -39 -113 -54
-206 -56 -359 -2 -83 1 -173 6 -200 5 -28 11 -59 13 -70 15 -81 56 -205 98
-294 27 -58 103 -188 118 -201 3 -3 17 -21 32 -41 95 -127 290 -283 442 -354
112 -52 256 -97 357 -111 32 -5 50 -17 87 -56 39 -43 81 -83 166 -164 21 -20
174 -134 179 -134 3 0 25 -13 49 -29 93 -63 264 -128 403 -154 109 -21 304
-15 411 12 469 117 886 526 1220 1196 49 99 103 212 118 250 16 39 35 84 42
100 21 47 98 261 129 355 15 47 31 90 36 95 7 9 72 15 217 18 33 1 34 3 37 52
0 17 5 37 10 44 5 10 4 12 -3 7 -15 -9 -15 -1 -1 26 6 11 7 18 2 15 -4 -3 -8
33 -8 79 0 46 4 84 8 84 5 0 6 3 3 8 -5 9 58 7 73 -3 6 -3 11 -3 11 2 0 9 114
8 129 -2 6 -3 11 -1 11 4 0 6 5 11 11 11 5 0 8 -3 6 -7 -3 -5 6 -8 19 -8 13 0
24 2 24 5 0 7 237 3 249 -5 6 -3 11 -1 11 4 0 6 5 11 11 11 5 0 8 -4 5 -9 -3
-4 11 -5 32 -1 41 7 62 4 62 -11 0 -6 -6 -7 -12 -3 -9 5 -9 2 1 -9 10 -13 11
-20 2 -30 -6 -8 -8 -17 -4 -21 13 -12 12 -86 -1 -79 -8 5 -8 3 0 -8 15 -20 15
-59 1 -59 -8 0 -8 -3 -2 -8 6 -4 10 -25 11 -47 0 -27 5 -40 15 -41 8 -1 22 -2
32 -3 13 -1 16 -5 9 -18 -12 -25 -17 -89 -17 -228 0 -144 7 -202 39 -321 126
-467 527 -836 992 -913 71 -12 71 -13 150 -93 259 -264 528 -419 794 -457 59
-8 253 -6 310 3 220 36 452 152 646 323 69 61 104 95 199 197 17 18 47 55 128
156 80 100 233 353 327 539 49 98 84 178 200 456 4 11 18 49 30 85 12 36 26
74 30 85 5 11 20 56 34 100 13 44 29 80 35 80 7 0 16 7 21 15 5 8 10 10 10 4
0 -6 21 -10 51 -10 43 1 49 4 45 18 -2 10 -1 18 2 18 11 0 8 104 -3 112 -7 5
-7 8 0 8 6 0 9 32 7 81 -3 71 -2 81 12 76 9 -4 16 -3 16 1 0 9 154 7 169 -3 6
-3 11 -2 11 4 0 6 6 8 14 5 18 -7 116 -10 116 -4 0 3 33 5 74 5 41 0 72 -3 69
-7 -2 -5 1 -8 6 -8 6 0 11 3 11 8 0 4 34 7 77 6 69 0 77 -3 84 -22 5 -12 4
-22 0 -22 -5 0 -5 -16 -1 -35 5 -24 4 -35 -4 -35 -6 0 -4 -5 4 -10 13 -9 13
-10 0 -10 -13 0 -13 -1 0 -10 13 -9 13 -10 0 -10 -13 0 -13 -1 0 -10 13 -9 13
-10 0 -10 -13 0 -13 -1 0 -10 13 -9 13 -10 0 -10 -12 0 -13 -2 -1 -9 11 -7 11
-9 0 -14 -8 -3 -9 -6 -4 -6 6 -1 9 -18 7 -42 -3 -25 1 -45 8 -52 10 -9 11 -9
5 3 -7 12 -6 13 6 4 12 -9 48 -12 194 -18 22 -1 45 -5 52 -9 6 -4 14 -3 17 2
3 5 38 9 78 10 86 2 98 4 117 15 9 6 12 5 7 -2 -4 -7 1 -10 14 -9 25 2 28 9
25 87 -1 36 3 71 8 78 5 6 6 12 1 12 -7 0 -11 96 -5 131 1 10 91 16 91 6 0 -4
8 -3 18 2 11 6 24 6 35 0 11 -7 17 -7 17 0 0 7 8 7 25 1 14 -5 25 -6 25 -2 0
11 54 9 62 -3 5 -6 8 -5 8 4 0 11 3 11 15 1 8 -7 15 -8 15 -4 0 10 63 10 79
-1 6 -3 11 -3 11 2 0 9 114 8 129 -2 6 -3 11 -1 11 4 0 6 5 11 11 11 5 0 8 -4
5 -8 -3 -5 12 -6 32 -3 l37 6 0 160 c0 132 -2 159 -14 157 -8 -2 -18 3 -22 10
-5 7 -9 9 -9 3 0 -5 -11 -11 -25 -11 -16 -1 -22 2 -18 10 4 6 0 5 -9 -2 -12
-9 -18 -10 -23 -2 -5 8 -11 8 -21 -1 -11 -9 -17 -9 -29 1 -8 7 -15 9 -15 4 0
-5 -16 -10 -35 -10 -21 -1 -32 3 -28 9 4 6 1 7 -8 2 -20 -13 -89 -13 -89 -1 0
6 -5 4 -10 -4 -9 -13 -11 -13 -20 0 -5 8 -10 11 -10 5 0 -5 -11 -11 -25 -11
-15 -1 -22 2 -18 9 4 6 1 7 -8 1 -19 -12 -33 -12 -41 1 -5 7 -8 6 -8 -1 0 -13
-38 -12 -59 0 -10 6 -12 5 -7 -2 9 -14 -36 -12 -46 2 -4 6 -13 4 -22 -3 -13
-11 -18 -10 -32 3 -9 10 -14 19 -11 22 3 3 2 18 -3 33 -4 16 -3 35 2 46 7 12
7 16 0 12 -6 -4 -10 6 -10 26 0 101 -7 199 -14 203 -5 3 -5 10 -1 17 6 9 8 62
3 70 -8 10 -4 47 4 47 7 0 8 3 1 8 -6 4 -10 65 -10 147 0 82 -4 143 -10 147
-7 5 -6 8 0 8 12 0 13 40 1 58 -4 7 -4 12 1 12 10 0 9 143 -1 159 -4 6 -2 11
5 11 8 0 7 5 -2 17 -8 9 -9 14 -4 11 6 -4 10 33 10 103 -1 60 3 109 8 109 5 0
4 7 -3 15 -9 11 -9 15 -1 15 8 0 9 5 2 19 -6 10 -7 21 -4 25 12 12 11 56 -1
56 -7 0 -8 3 -1 8 10 7 12 21 16 120 1 29 4 54 8 56 3 2 6 27 5 55 0 28 2 52
5 53 3 1 152 2 331 3 l325 2 2 154 c2 175 1 184 -25 170 -13 -7 -23 -6 -32 2
-10 9 -14 9 -17 -1 -3 -6 -9 -9 -15 -6 -16 10 -108 11 -108 2 0 -5 -5 -6 -11
-2 -17 10 -109 12 -109 2 0 -5 -5 -6 -11 -2 -17 10 -149 11 -149 1 0 -4 -5 -5
-11 -1 -17 10 -109 12 -109 2 0 -4 -8 -3 -18 3 -21 13 -25 37 -9 57 5 6 6 12
1 12 -11 0 -11 80 -1 98 5 6 4 12 0 12 -11 0 -11 41 0 58 5 6 4 12 -1 12 -5 0
-9 8 -9 18 0 38 -3 39 -77 39 -41 0 -79 4 -85 7 -6 4 -11 1 -11 -6 0 -9 -3 -9
-10 2 -8 12 -10 12 -10 1 0 -10 -3 -11 -14 -2 -11 9 -16 9 -21 0 -6 -8 -10 -7
-16 2 -8 12 -11 11 -19 -1 -8 -12 -10 -12 -10 -1 0 10 -3 11 -14 2 -11 -9 -15
-9 -19 1 -4 11 -6 11 -6 0 -1 -9 -6 -10 -20 -3 -10 6 -21 8 -24 5 -2 -3 -38
-5 -78 -6 -84 -1 -100 -10 -88 -50 4 -16 4 -28 -1 -28 -5 0 -5 -13 0 -29 4
-16 6 -32 3 -35 -3 -3 -5 -42 -4 -87 2 -78 1 -81 -18 -74 -13 4 -21 2 -21 -5
0 -6 -5 -8 -11 -4 -19 11 -109 11 -109 0 0 -7 -3 -8 -8 -1 -9 13 -72 16 -72 4
0 -6 -7 -6 -17 -1 -20 9 -84 9 -99 -1 -6 -3 -16 -2 -23 3 -8 4 -27 6 -42 3
-23 -3 -29 0 -30 14 0 10 -2 50 -4 88 -9 228 -17 374 -20 400 -2 17 -7 68 -10
115 -6 101 -12 152 -40 380 -18 145 -22 174 -29 216 -3 17 -8 48 -11 70 -2 21
-11 75 -19 119 -8 44 -17 94 -20 110 -7 45 -53 257 -65 301 -5 21 -12 50 -14
64 -34 193 -201 708 -319 985 -171 400 -395 764 -613 995 -54 58 -173 169
-211 197 -131 99 -184 133 -284 181 -231 110 -493 138 -722 79 -94 -25 -121
-35 -218 -80 -51 -23 -192 -105 -200 -116 -3 -3 -18 -15 -33 -24 -48 -31 -200
-169 -265 -241 -131 -144 -285 -358 -381 -526 -127 -224 -275 -557 -371 -835
-67 -195 -178 -590 -204 -730 -2 -11 -16 -75 -30 -142 -14 -66 -28 -140 -31
-163 -3 -23 -7 -45 -9 -49 -2 -3 -7 -26 -10 -51 -3 -25 -8 -56 -10 -70 -7 -40
-21 -131 -30 -202 -23 -170 -29 -223 -41 -353 -3 -33 -7 -76 -10 -95 -4 -30
-10 -118 -20 -280 -2 -19 -3 -40 -4 -46 0 -6 -11 -10 -23 -10 -20 1 -23 -3
-20 -33 3 -24 0 -31 -9 -26 -8 6 -10 4 -3 -6 13 -21 14 -41 3 -60 -5 -10 -5
-20 -1 -23 5 -3 7 -36 6 -73 -3 -95 -3 -99 -12 -88 -9 12 -122 14 -122 2 0 -4
-5 -5 -11 -1 -17 10 -109 12 -109 2 0 -5 -5 -6 -11 -2 -17 10 -109 12 -109 2
0 -5 -5 -6 -11 -2 -17 10 -109 12 -109 2 0 -5 -7 -5 -16 0 -9 5 -25 7 -35 5
-14 -4 -19 0 -20 18 -1 13 -2 60 -4 104 -5 127 -15 336 -20 385 -3 25 -7 77
-10 115 -10 133 -18 210 -34 337 -6 47 -14 106 -17 130 -4 35 -40 261 -61 383
-2 17 -14 73 -25 125 -10 52 -21 106 -24 120 -17 91 -104 424 -150 575 -132
429 -312 843 -487 1120 -32 50 -63 99 -70 109 -101 161 -319 412 -434 500 -15
12 -36 30 -48 41 -27 26 -143 102 -218 143 -101 57 -234 104 -357 127 -41 8
-254 14 -290 8z m-2009 -4687 c0 -12 2 -73 4 -136 7 -227 22 -462 40 -623 28
-262 34 -315 40 -337 2 -8 7 -44 10 -80 4 -36 8 -67 10 -70 9 -15 20 -127 20
-207 0 -58 3 -90 10 -86 5 2 1 -3 -9 -11 -11 -9 -15 -16 -8 -16 8 0 9 -8 4
-22 -5 -13 -8 -35 -7 -49 0 -14 -5 -31 -12 -38 -10 -9 -13 -9 -13 1 0 8 -3 9
-8 3 -10 -13 -62 -17 -62 -4 0 6 -6 7 -12 2 -23 -14 -50 -14 -42 -1 5 9 2 9
-9 -1 -14 -11 -17 -11 -17 0 0 9 -3 10 -8 4 -11 -16 -34 -17 -43 -3 -7 10 -9
10 -9 -1 0 -10 -3 -11 -13 -2 -8 6 -17 8 -21 4 -11 -11 -36 -12 -36 -2 0 6 -6
7 -12 2 -22 -13 -50 -14 -42 -1 5 7 3 8 -7 3 -20 -13 -89 -13 -89 -1 0 6 -5 4
-10 -4 -9 -13 -11 -13 -20 0 -5 8 -10 11 -10 5 0 -5 -11 -11 -25 -11 -15 -1
-22 2 -18 9 4 6 1 7 -8 1 -19 -12 -33 -12 -41 1 -5 7 -8 7 -8 0 0 -12 -59 -14
-75 -3 -6 4 -17 3 -25 -3 -28 -17 -28 -16 -31 56 0 19 -5 33 -9 30 -5 -3 -5 8
0 25 5 16 6 30 2 30 -4 0 -7 42 -7 93 0 50 -4 95 -10 99 -6 5 -5 8 4 8 11 0
11 3 1 15 -9 11 -9 15 -1 15 7 0 9 5 5 12 -5 7 -9 44 -9 83 -1 39 -4 76 -8 81
-3 6 -2 16 2 23 8 12 4 81 -4 90 -3 2 0 10 6 18 6 7 7 13 2 13 -8 0 -10 55 -3
85 1 6 1 12 0 15 -7 19 -5 70 4 70 6 0 4 4 -4 10 -8 5 -11 12 -7 16 4 4 1 14
-6 22 -10 13 -9 14 2 7 11 -6 13 -4 8 8 -3 10 -2 17 4 17 6 0 7 6 3 12 -12 20
-12 52 0 60 8 5 8 8 0 8 -11 0 -12 35 -2 45 3 4 3 18 -1 33 -4 15 -4 39 0 54
4 16 3 30 -2 34 -5 3 -6 11 -2 17 4 6 8 56 10 112 6 162 8 189 16 202 4 6 3
14 -2 18 -5 3 -7 15 -4 28 3 12 6 43 7 69 0 27 5 48 9 48 5 0 6 4 3 8 -3 5
132 8 300 8 300 0 304 0 305 -20z m4850 15 c4 0 7 -16 7 -33 1 -36 9 -214 17
-343 2 -44 7 -136 10 -205 4 -68 9 -128 11 -132 2 -3 0 -9 -6 -13 -6 -4 -7
-11 -4 -17 9 -15 11 -118 3 -118 -4 0 -4 -13 1 -30 5 -19 5 -30 -1 -30 -6 0
-5 -8 1 -20 6 -11 7 -20 3 -20 -10 0 -7 -75 2 -90 3 -6 3 -10 -2 -10 -4 0 -8
-55 -8 -123 1 -67 -2 -132 -6 -143 -5 -13 -3 -27 4 -34 9 -10 9 -11 0 -6 -6 3
-14 2 -18 -4 -3 -5 -1 -10 6 -10 7 0 9 -9 6 -22 -4 -12 -1 -29 6 -37 10 -12 9
-13 -1 -7 -11 7 -13 1 -9 -28 3 -20 2 -38 -2 -40 -3 -3 -6 -22 -5 -43 1 -21
-1 -42 -4 -48 -3 -5 -5 -24 -3 -41 3 -40 -32 -67 -51 -39 -5 7 -8 6 -8 -1 0
-13 -38 -12 -59 0 -10 6 -12 5 -7 -2 8 -13 -28 -12 -40 1 -4 3 -12 3 -18 0
-19 -12 -36 -12 -36 0 0 8 -3 8 -8 2 -10 -15 -84 -16 -75 -1 4 6 0 5 -9 -2
-12 -9 -18 -10 -23 -2 -5 8 -11 8 -21 -1 -11 -9 -17 -9 -29 1 -8 7 -15 9 -15
4 0 -5 -16 -10 -35 -10 -21 -1 -32 3 -28 9 4 6 1 7 -8 2 -20 -13 -89 -13 -89
-1 0 6 -4 5 -9 -2 -4 -8 -12 -14 -16 -14 -4 0 -12 6 -16 14 -5 7 -9 8 -9 3 0
-15 -40 -16 -40 -2 0 8 -3 7 -9 -2 -6 -9 -10 -10 -16 -2 -5 9 -10 9 -20 1 -19
-15 -49 28 -33 47 8 10 7 13 -3 13 -12 0 -12 2 0 9 8 5 9 11 3 15 -5 3 -8 17
-7 31 2 14 -2 25 -8 25 -8 0 -8 3 -2 8 6 4 10 30 11 57 1 48 10 133 19 165 2
8 6 35 9 60 3 25 8 54 10 65 2 11 7 47 11 80 4 32 8 67 10 75 2 9 6 43 9 76 7
60 12 111 21 187 3 23 7 77 10 119 3 42 7 101 10 130 9 101 17 268 25 519 0
13 34 15 293 14 160 -1 295 -3 298 -4z m4750 -25 c5 -16 6 -33 3 -38 -3 -4 1
-8 8 -9 10 0 10 -2 0 -6 -6 -2 -9 -9 -6 -15 7 -12 17 -152 18 -270 1 -49 3
-88 6 -88 3 0 4 -25 3 -55 -2 -37 1 -54 8 -49 8 4 8 1 1 -12 -11 -23 -10 -113
2 -133 6 -10 5 -12 -2 -7 -7 4 -12 3 -12 -3 0 -5 5 -13 10 -16 6 -4 7 -12 3
-18 -12 -20 -12 -37 0 -37 8 0 8 -3 2 -8 -14 -10 -16 -74 -2 -65 6 4 7 1 1 -8
-13 -20 -13 -61 0 -78 8 -11 8 -13 -2 -7 -14 8 -12 -19 2 -43 6 -9 5 -12 -1
-8 -7 4 -11 -28 -12 -91 0 -53 -4 -153 -7 -222 -4 -69 -7 -149 -7 -177 0 -30
-5 -53 -11 -53 -6 0 -5 -4 3 -9 7 -5 9 -11 4 -14 -5 -3 -8 -21 -7 -39 1 -18
-2 -41 -8 -51 -7 -13 -7 -17 0 -13 6 3 8 -2 5 -12 -5 -20 -52 -25 -65 -7 -5 7
-8 6 -8 0 0 -15 -40 -16 -40 -2 0 8 -3 7 -9 -2 -6 -9 -11 -10 -15 -2 -4 6 -13
8 -19 4 -19 -12 -37 -12 -37 -2 0 6 -6 7 -12 2 -22 -13 -50 -14 -42 -1 5 7 3
8 -7 3 -20 -13 -89 -13 -89 -1 0 6 -5 4 -10 -4 -9 -13 -11 -13 -20 0 -5 8 -10
11 -10 5 0 -5 -11 -11 -25 -11 -15 -1 -22 2 -18 9 4 6 1 7 -8 1 -19 -12 -33
-12 -41 1 -5 7 -8 7 -8 0 0 -12 -59 -14 -75 -3 -6 4 -17 3 -25 -2 -8 -5 -21
-5 -31 1 -11 6 -20 5 -24 -1 -13 -21 -23 -9 -20 23 2 17 15 95 29 172 14 77
28 158 31 180 3 22 10 65 15 95 10 59 35 256 45 355 4 33 8 76 10 95 3 19 7
76 10 125 4 50 8 101 10 114 5 28 15 230 20 401 2 69 4 128 5 131 0 3 107 5
237 5 l237 -1 7 -29z"/>
</g>
</svg>
